<svg width="91" height="86" viewBox="0 0 91 86" fill="none" xmlns="http://www.w3.org/2000/svg">
<path d="M6.581 31.8351L25.852 27.9685C27.091 27.72 28.168 26.9598 28.816 25.8754L36.619 12.8297L41.595 4.51041C43.334 1.60281 47.546 1.60281 49.285 4.51041L62.064 25.8754C62.712 26.9598 63.789 27.72 65.028 27.9685L84.299 31.8351C87.803 32.5382 89.114 36.86 86.591 39.3913L70.651 55.3814C69.596 56.4399 69.138 57.9549 69.431 59.4206L73.051 77.5803C73.78 81.2382 69.982 84.1336 66.648 82.4613L47.449 72.8313C46.185 72.1972 44.695 72.1972 43.431 72.8313L24.232 82.4613C20.898 84.1336 17.0998 81.2382 17.8291 77.5803L21.45 59.4206C21.742 57.9549 21.284 56.4399 20.229 55.3814L4.2892 39.3913C1.7659 36.86 3.0767 32.5382 6.581 31.8351Z" fill="#F7B307"/>
<path fill-rule="evenodd" clip-rule="evenodd" d="M6.1398 29.6385L25.411 25.772C26.031 25.6477 26.569 25.2677 26.893 24.7254L39.672 3.36041C42.28 -1.00099 48.599 -1.00099 51.207 3.36041L63.986 24.7254C64.31 25.2677 64.848 25.6477 65.468 25.772L84.739 29.6385C89.996 30.6932 91.962 37.1759 88.177 40.9729L72.237 56.963C71.71 57.4922 71.481 58.2497 71.627 58.9826L75.248 77.1423C76.341 82.6291 70.644 86.9722 65.643 84.4638L46.444 74.8337C45.812 74.5167 45.067 74.5167 44.435 74.8337L25.236 84.4638C20.235 86.9722 14.5377 82.6291 15.6315 77.1423L19.252 58.9826C19.398 58.2497 19.169 57.4922 18.642 56.963L2.70201 40.9729C-1.08289 37.1759 0.883404 30.6932 6.1398 29.6385ZM25.852 27.9685L6.5805 31.835C3.0762 32.5381 1.7654 36.86 4.2887 39.3913L20.228 55.3814C21.283 56.4399 21.741 57.9549 21.449 59.4206L17.8286 77.5803C17.0993 81.2382 20.898 84.1336 24.232 82.4613L43.431 72.8313C44.695 72.1972 46.184 72.1972 47.448 72.8313L66.648 82.4613C69.982 84.1336 73.78 81.2382 73.05 77.5803L69.43 59.4206C69.138 57.9549 69.596 56.4399 70.651 55.3814L86.59 39.3913C89.114 36.8599 87.803 32.5381 84.299 31.835L65.027 27.9685C63.788 27.72 62.712 26.9598 62.063 25.8754L49.285 4.51041C47.546 1.60281 43.333 1.60281 41.594 4.51041L28.816 25.8754C28.167 26.9598 27.091 27.72 25.852 27.9685Z" fill="#5B3303"/>
<path fill-rule="evenodd" clip-rule="evenodd" d="M41.566 43.0647C42.086 43.3992 42.237 44.0923 41.902 44.6126L31.821 60.2946C31.487 60.8149 30.793 60.9656 30.273 60.6311C29.753 60.2965 29.602 59.6035 29.937 59.0831L40.018 43.4012C40.352 42.8808 41.045 42.7301 41.566 43.0647Z" fill="#FFC530"/>
<path d="M86.591 39.3915L73.012 53.0137C71.612 54.4183 69.455 54.7353 67.71 53.7929L45.44 41.7666L63.282 27.2048C63.797 27.5778 64.391 27.8409 65.028 27.9688L84.299 31.8353C87.804 32.5384 89.115 36.8602 86.591 39.3915Z" fill="#FFC01D"/>
<path fill-rule="evenodd" clip-rule="evenodd" d="M73.435 36.027C73.512 36.6409 73.077 37.2007 72.463 37.2774L54.541 39.5177C53.927 39.5944 53.367 39.159 53.29 38.5451C53.214 37.9313 53.649 37.3715 54.263 37.2947L72.185 35.0544C72.799 34.9777 73.359 35.4131 73.435 36.027Z" fill="#FFD363"/>
<path d="M43.43 72.8315L24.231 82.4616C22.606 83.2768 20.87 83.0065 19.603 82.0916L45.439 41.7666L87.9 36.166C87.922 37.3043 87.511 38.4673 86.59 39.3915L70.651 55.3816C69.595 56.4401 69.138 57.9551 69.43 59.4209L73.05 77.5806C73.779 81.2384 69.981 84.1338 66.647 82.4616L47.448 72.8315C46.184 72.1974 44.695 72.1974 43.43 72.8315Z" fill="#CF9500"/>
<path d="M69.431 59.4209L73.052 77.5806C73.425 79.4553 72.61 81.1297 71.277 82.0916L45.44 41.7666L70.652 55.3817C69.597 56.4402 69.139 57.9551 69.431 59.4209Z" fill="#B97D08"/>
<path d="M6.5802 31.8354L25.852 27.9689C27.091 27.7203 28.167 26.9602 28.816 25.8757L41.594 4.51066C42.463 3.05686 43.951 2.32996 45.439 2.32996V41.7667L3.1399 35.0459C3.5612 33.5101 4.7819 32.1962 6.5802 31.8354Z" fill="#FFD056"/>
<path fill-rule="evenodd" clip-rule="evenodd" d="M43.222 8.16269C43.841 8.17489 44.332 8.68609 44.32 9.30459L43.76 37.8681C43.754 38.186 43.613 38.4862 43.372 38.6939C43.132 38.9017 42.814 38.9975 42.499 38.9573L11.6949 35.0369C11.0812 34.9587 10.647 34.3979 10.7251 33.7843C10.8033 33.1706 11.3641 32.7364 11.9777 32.8145L41.545 36.5776L42.08 9.26069C42.092 8.64219 42.604 8.15059 43.222 8.16269Z" fill="#FFE39A"/>
<path fill-rule="evenodd" clip-rule="evenodd" d="M34.248 36.7782C34.326 36.1645 34.887 35.7303 35.501 35.8084L42.782 36.7351C43.395 36.8132 43.829 37.374 43.751 37.9877C43.673 38.6014 43.112 39.0356 42.499 38.9575L35.218 38.0308C34.604 37.9527 34.17 37.3919 34.248 36.7782Z" fill="#FFFBF0"/>
<path d="M46.561 50.1678C46.561 51.0957 45.808 51.8479 44.88 51.8479C43.952 51.8479 43.2 51.0957 43.2 50.1678C43.2 49.2398 43.952 48.4875 44.88 48.4875C45.808 48.4875 46.561 49.2398 46.561 50.1678Z" fill="#BA8600"/>
<path d="M49.921 54.6483C49.921 54.9577 49.67 55.2084 49.361 55.2084C49.052 55.2084 48.801 54.9577 48.801 54.6483C48.801 54.339 49.052 54.0883 49.361 54.0883C49.67 54.0883 49.921 54.339 49.921 54.6483Z" fill="#BA8600"/>
<path d="M42.08 59.1288C42.08 59.4381 41.829 59.6888 41.52 59.6888C41.211 59.6888 40.96 59.4381 40.96 59.1288C40.96 58.8195 41.211 58.5687 41.52 58.5687C41.829 58.5687 42.08 58.8195 42.08 59.1288Z" fill="#BA8600"/>
<path d="M48.801 58.0086C48.801 58.318 48.55 58.5687 48.241 58.5687C47.931 58.5687 47.681 58.318 47.681 58.0086C47.681 57.6993 47.931 57.4486 48.241 57.4486C48.55 57.4486 48.801 57.6993 48.801 58.0086Z" fill="#BA8600"/>
<path d="M56.642 62.4892C56.642 62.7985 56.391 63.0493 56.082 63.0493C55.772 63.0493 55.522 62.7985 55.522 62.4892C55.522 62.1799 55.772 61.9291 56.082 61.9291C56.391 61.9291 56.642 62.1799 56.642 62.4892Z" fill="#BA8600"/>
<path d="M48.801 50.1676C48.801 50.4769 48.55 50.7277 48.241 50.7277C47.931 50.7277 47.681 50.4769 47.681 50.1676C47.681 49.8583 47.931 49.6075 48.241 49.6075C48.55 49.6075 48.801 49.8583 48.801 50.1676Z" fill="#BA8600"/>
<path d="M45.44 45.6871C45.44 45.9964 45.19 46.2472 44.88 46.2472C44.571 46.2472 44.32 45.9964 44.32 45.6871C44.32 45.3778 44.571 45.1271 44.88 45.1271C45.19 45.1271 45.44 45.3778 45.44 45.6871Z" fill="#BA8600"/>
<path d="M51.041 61.3691C51.041 61.6784 50.79 61.9291 50.481 61.9291C50.172 61.9291 49.921 61.6784 49.921 61.3691C49.921 61.0597 50.172 60.809 50.481 60.809C50.79 60.809 51.041 61.0597 51.041 61.3691Z" fill="#BA8600"/>
<path d="M47.681 54.0882C47.681 54.7068 47.179 55.2083 46.561 55.2083C45.942 55.2083 45.44 54.7068 45.44 54.0882C45.44 53.4695 45.942 52.968 46.561 52.968C47.179 52.968 47.681 53.4695 47.681 54.0882Z" fill="#BA8600"/>
<path d="M46.561 58.5687C46.561 59.1874 46.059 59.6889 45.44 59.6889C44.822 59.6889 44.32 59.1874 44.32 58.5687C44.32 57.9501 44.822 57.4486 45.44 57.4486C46.059 57.4486 46.561 57.9501 46.561 58.5687Z" fill="#BA8600"/>
<path d="M53.281 58.5687C53.281 59.1874 52.78 59.6889 52.161 59.6889C51.543 59.6889 51.041 59.1874 51.041 58.5687C51.041 57.9501 51.543 57.4486 52.161 57.4486C52.78 57.4486 53.281 57.9501 53.281 58.5687Z" fill="#BA8600"/>
<path d="M43.2 55.2084C43.2 55.827 42.699 56.3285 42.08 56.3285C41.461 56.3285 40.96 55.827 40.96 55.2084C40.96 54.5898 41.461 54.0883 42.08 54.0883C42.699 54.0883 43.2 54.5898 43.2 55.2084Z" fill="#BA8600"/>
</svg>
