<svg width="90" height="86" viewBox="0 0 90 86" fill="none" xmlns="http://www.w3.org/2000/svg">
<path d="M5.84566 31.7458L25.1167 27.8792C26.3557 27.6307 27.4327 26.8705 28.0807 25.7861L35.8837 12.7404L40.8597 4.42106C42.5987 1.51346 46.8107 1.51346 48.5497 4.42106L61.3287 25.7861C61.9767 26.8705 63.0537 27.6307 64.2927 27.8792L83.5637 31.7458C87.0677 32.4489 88.3787 36.7707 85.8557 39.302L69.9157 55.2921C68.8607 56.3506 68.4027 57.8656 68.6957 59.3313L72.3157 77.491C73.0447 81.1489 69.2467 84.0443 65.9127 82.372L46.7137 72.742C45.4497 72.1079 43.9597 72.1079 42.6957 72.742L23.4967 82.372C20.1627 84.0443 16.3645 81.1489 17.0938 77.491L20.7147 59.3313C21.0067 57.8656 20.5487 56.3506 19.4937 55.2921L3.55386 39.302C1.03056 36.7707 2.34136 32.4489 5.84566 31.7458Z" fill="#B4B4B4"/>
<path fill-rule="evenodd" clip-rule="evenodd" d="M5.40446 29.5492L24.6757 25.6826C25.2957 25.5583 25.8337 25.1783 26.1577 24.636L38.9367 3.27105C41.5447 -1.09035 47.8637 -1.09035 50.4717 3.27105L63.2507 24.636C63.5747 25.1783 64.1127 25.5583 64.7327 25.6826L84.0037 29.5492C89.2607 30.6039 91.2267 37.0865 87.4417 40.8835L71.5017 56.8736C70.9747 57.4028 70.7457 58.1603 70.8917 58.8932L74.5127 77.053C75.6057 82.5398 69.9087 86.8829 64.9077 84.3745L45.7087 74.7444C45.0767 74.4274 44.3317 74.4274 43.6997 74.7444L24.5007 84.3745C19.4997 86.8829 13.8024 82.5398 14.8962 77.053L18.5167 58.8932C18.6627 58.1603 18.4337 57.4028 17.9067 56.8736L1.96666 40.8835C-1.81824 37.0865 0.14806 30.6039 5.40446 29.5492ZM25.1167 27.8791L5.84516 31.7456C2.34086 32.4487 1.03006 36.7706 3.55335 39.3019L19.4927 55.292C20.5477 56.3505 21.0057 57.8655 20.7137 59.3312L17.0933 77.491C16.364 81.1489 20.1627 84.0443 23.4967 82.372L42.6957 72.742C43.9597 72.1079 45.4487 72.1079 46.7127 72.742L65.9127 82.372C69.2467 84.0443 73.0447 81.1489 72.3147 77.491L68.6946 59.3312C68.4026 57.8655 68.8607 56.3505 69.9157 55.292L85.8547 39.3019C88.3787 36.7705 87.0677 32.4487 83.5637 31.7456L64.2916 27.8791C63.0526 27.6306 61.9767 26.8705 61.3277 25.7861L48.5497 4.42105C46.8107 1.51345 42.5977 1.51345 40.8587 4.42105L28.0807 25.7861C27.4317 26.8705 26.3557 27.6306 25.1167 27.8791Z" fill="#5B3303"/>
<path fill-rule="evenodd" clip-rule="evenodd" d="M40.8307 42.9753C41.3507 43.3098 41.5016 44.0029 41.1666 44.5232L31.0856 60.2052C30.7516 60.7255 30.0577 60.8762 29.5377 60.5417C29.0177 60.2071 28.8666 59.5141 29.2016 58.9937L39.2826 43.3118C39.6166 42.7914 40.3097 42.6407 40.8307 42.9753Z" fill="#B4B4B4"/>
<path d="M85.8557 39.3022L72.2766 52.9244C70.8766 54.329 68.7197 54.646 66.9747 53.7036L44.7047 41.6773L62.5466 27.1155C63.0616 27.4885 63.6556 27.7516 64.2926 27.8795L83.5636 31.746C87.0686 32.4491 88.3797 36.7709 85.8557 39.3022Z" fill="#B4B4B4"/>
<path fill-rule="evenodd" clip-rule="evenodd" d="M72.6996 35.9377C72.7766 36.5516 72.3416 37.1114 71.7276 37.1881L53.8056 39.4284C53.1916 39.5051 52.6316 39.0697 52.5546 38.4558C52.4786 37.842 52.9136 37.2822 53.5276 37.2054L71.4496 34.9651C72.0636 34.8884 72.6236 35.3238 72.6996 35.9377Z" fill="#B4B4B4"/>
<path d="M42.6946 72.7422L23.4957 82.3723C21.8707 83.1875 20.1346 82.9172 18.8676 82.0023L44.7037 41.6773L87.1646 36.0767C87.1866 37.215 86.7756 38.378 85.8546 39.3022L69.9156 55.2923C68.8596 56.3508 68.4026 57.8658 68.6946 59.3316L72.3147 77.4913C73.0437 81.1491 69.2457 84.0445 65.9117 82.3723L46.7126 72.7422C45.4486 72.1081 43.9596 72.1081 42.6946 72.7422Z" fill="#B4B4B4"/>
<path d="M68.6956 59.3315L72.3167 77.4912C72.6897 79.3659 71.8746 81.0403 70.5416 82.0022L44.7047 41.6772L69.9166 55.2923C68.8616 56.3508 68.4036 57.8657 68.6956 59.3315Z" fill="#B4B4B4"/>
<path d="M5.84484 31.746L25.1166 27.8795C26.3556 27.6309 27.4316 26.8708 28.0806 25.7863L40.8586 4.4213C41.7276 2.9675 43.2156 2.2406 44.7036 2.2406V41.6773L2.40454 34.9565C2.82584 33.4207 4.04654 32.1068 5.84484 31.746Z" fill="#B4B4B4"/>
<path fill-rule="evenodd" clip-rule="evenodd" d="M42.4866 8.07334C43.1056 8.08554 43.5966 8.59674 43.5846 9.21524L43.0246 37.7787C43.0186 38.0966 42.8776 38.3968 42.6366 38.6045C42.3966 38.8123 42.0786 38.9081 41.7636 38.8679L10.9595 34.9475C10.3458 34.8693 9.91163 34.3085 9.98973 33.6949C10.0679 33.0812 10.6287 32.647 11.2423 32.7251L40.8096 36.4882L41.3446 9.17134C41.3566 8.55284 41.8686 8.06124 42.4866 8.07334Z" fill="#B4B4B4"/>
<path fill-rule="evenodd" clip-rule="evenodd" d="M33.5127 36.6888C33.5907 36.0751 34.1516 35.6409 34.7656 35.719L42.0466 36.6457C42.6596 36.7238 43.0936 37.2846 43.0156 37.8983C42.9376 38.512 42.3766 38.9462 41.7636 38.8681L34.4827 37.9414C33.8687 37.8633 33.4347 37.3025 33.5127 36.6888Z" fill="#B4B4B4"/>
<path d="M45.8257 50.0784C45.8257 51.0063 45.0726 51.7586 44.1446 51.7586C43.2166 51.7586 42.4646 51.0063 42.4646 50.0784C42.4646 49.1504 43.2166 48.3982 44.1446 48.3982C45.0726 48.3982 45.8257 49.1504 45.8257 50.0784Z" fill="#B4B4B4"/>
<path d="M49.1857 54.5589C49.1857 54.8683 48.9346 55.119 48.6256 55.119C48.3166 55.119 48.0656 54.8683 48.0656 54.5589C48.0656 54.2496 48.3166 53.9989 48.6256 53.9989C48.9346 53.9989 49.1857 54.2496 49.1857 54.5589Z" fill="#B4B4B4"/>
<path d="M41.3446 59.0395C41.3446 59.3488 41.0936 59.5995 40.7846 59.5995C40.4756 59.5995 40.2246 59.3488 40.2246 59.0395C40.2246 58.7302 40.4756 58.4794 40.7846 58.4794C41.0936 58.4794 41.3446 58.7302 41.3446 59.0395Z" fill="#B4B4B4"/>
<path d="M48.0656 57.9193C48.0656 58.2287 47.8146 58.4794 47.5056 58.4794C47.1956 58.4794 46.9456 58.2287 46.9456 57.9193C46.9456 57.61 47.1956 57.3593 47.5056 57.3593C47.8146 57.3593 48.0656 57.61 48.0656 57.9193Z" fill="#B4B4B4"/>
<path d="M55.9066 62.3998C55.9066 62.7091 55.6556 62.9599 55.3466 62.9599C55.0366 62.9599 54.7867 62.7091 54.7867 62.3998C54.7867 62.0905 55.0366 61.8397 55.3466 61.8397C55.6556 61.8397 55.9066 62.0905 55.9066 62.3998Z" fill="#B4B4B4"/>
<path d="M48.0656 50.0783C48.0656 50.3876 47.8146 50.6384 47.5056 50.6384C47.1956 50.6384 46.9456 50.3876 46.9456 50.0783C46.9456 49.769 47.1956 49.5182 47.5056 49.5182C47.8146 49.5182 48.0656 49.769 48.0656 50.0783Z" fill="#B4B4B4"/>
<path d="M44.7047 45.5977C44.7047 45.907 44.4547 46.1578 44.1447 46.1578C43.8357 46.1578 43.5847 45.907 43.5847 45.5977C43.5847 45.2884 43.8357 45.0377 44.1447 45.0377C44.4547 45.0377 44.7047 45.2884 44.7047 45.5977Z" fill="#B4B4B4"/>
<path d="M50.3056 61.2797C50.3056 61.589 50.0547 61.8397 49.7457 61.8397C49.4367 61.8397 49.1857 61.589 49.1857 61.2797C49.1857 60.9703 49.4367 60.7196 49.7457 60.7196C50.0547 60.7196 50.3056 60.9703 50.3056 61.2797Z" fill="#B4B4B4"/>
<path d="M46.9456 53.9989C46.9456 54.6175 46.4437 55.119 45.8257 55.119C45.2067 55.119 44.7047 54.6175 44.7047 53.9989C44.7047 53.3802 45.2067 52.8787 45.8257 52.8787C46.4437 52.8787 46.9456 53.3802 46.9456 53.9989Z" fill="#B4B4B4"/>
<path d="M45.8257 58.4794C45.8257 59.0981 45.3237 59.5996 44.7047 59.5996C44.0867 59.5996 43.5847 59.0981 43.5847 58.4794C43.5847 57.8608 44.0867 57.3593 44.7047 57.3593C45.3237 57.3593 45.8257 57.8608 45.8257 58.4794Z" fill="#B4B4B4"/>
<path d="M52.5457 58.4794C52.5457 59.0981 52.0446 59.5996 51.4256 59.5996C50.8076 59.5996 50.3056 59.0981 50.3056 58.4794C50.3056 57.8608 50.8076 57.3593 51.4256 57.3593C52.0446 57.3593 52.5457 57.8608 52.5457 58.4794Z" fill="#B4B4B4"/>
<path d="M42.4646 55.119C42.4646 55.7376 41.9636 56.2391 41.3446 56.2391C40.7256 56.2391 40.2246 55.7376 40.2246 55.119C40.2246 54.5004 40.7256 53.9989 41.3446 53.9989C41.9636 53.9989 42.4646 54.5004 42.4646 55.119Z" fill="#B4B4B4"/>
</svg>
